<svg xmlns="http://www.w3.org/2000/svg" width="27.839" height="27.846" viewBox="0 0 27.839 27.846">
  <g id="Grupo_7" data-name="Grupo 7" transform="translate(-1098.231 621.986)">
    <path id="Trazado_16" data-name="Trazado 16" d="M1098.231-566.931a8.018,8.018,0,0,0,1.906,1.553,6.9,6.9,0,0,0,3.24.889c.607.014,1.214,0,1.821,0h.246a11.139,11.139,0,0,0,.163,1.235,3.6,3.6,0,0,0,3.339,2.761,17.836,17.836,0,0,0,2.742-.02,3.612,3.612,0,0,0,3.322-3.627c0-.107,0-.214,0-.349.639,0,1.254,0,1.868,0a6.983,6.983,0,0,0,2.5-.437,6.9,6.9,0,0,0,2.7-1.823c.047-.052.085-.112.174-.23v5.1a7.61,7.61,0,0,0-6.871,1.215,7.635,7.635,0,0,0-3.131,6.291h-.309c-4.2,0-8.409-.006-12.614.008a1.051,1.051,0,0,1-1.1-.606Z" transform="translate(0 -45.749)" fill="#fff"/>
    <path id="Trazado_17" data-name="Trazado 17" d="M1151.079-552.132h6.2a1.985,1.985,0,0,1-1.637,2.322,13.69,13.69,0,0,1-1.679.049,7.907,7.907,0,0,1-1.111-.026A2.032,2.032,0,0,1,1151.079-552.132Z" transform="translate(-43.937 -58.092)" fill="#fff"/>
    <path id="Trazado_18" data-name="Trazado 18" d="M1122.272-617.749c-.022-.656-.313-.967-.966-.967h-6.436c0-.313.007-.6,0-.887a2.424,2.424,0,0,0-2.365-2.369q-2.255-.029-4.512,0a2.389,2.389,0,0,0-2.313,2,12.316,12.316,0,0,0-.077,1.26h-.3c-1.993,0-3.987.011-5.98-.008a1.045,1.045,0,0,0-1.1.606v1.468a1.917,1.917,0,0,1,.052.208,5.292,5.292,0,0,0,5.174,4.572c4.53.016,9.061.028,13.591-.006a5.093,5.093,0,0,0,4.458-2.565A5.658,5.658,0,0,0,1122.272-617.749Zm-9.033-.976h-5.97a8.643,8.643,0,0,1,.007-.947.774.774,0,0,1,.773-.671q2.2-.011,4.4,0a.789.789,0,0,1,.785.751C1113.252-619.313,1113.239-619.033,1113.239-618.725Z" transform="translate(0 0)" fill="#fff"/>
    <path id="Trazado_19" data-name="Trazado 19" d="M1196.227-528.836a6.093,6.093,0,0,0-5.007,5.511,6.062,6.062,0,0,0,3.882,6.146,14.711,14.711,0,0,0,1.649.424h1.088a1.447,1.447,0,0,1,.182-.047,6.079,6.079,0,0,0,5.321-5.356A6.083,6.083,0,0,0,1196.227-528.836Zm1.908,6.071a.788.788,0,0,1-.806.819c-.607.019-1.215.021-1.822,0a.8.8,0,0,1-.789-.834.805.805,0,0,1,.836-.786c.305-.007.612,0,.957,0,0-.549-.015-1.047,0-1.544a.8.8,0,0,1,1.142-.722.772.772,0,0,1,.477.732C1198.145-524.323,1198.149-523.544,1198.134-522.765Z" transform="translate(-77.309 -77.385)" fill="#fff"/>
  </g>
</svg>
